# xmcd CD database generated by RipIT
#
# Track frame offsets:
# 150
# 14686
# 32277
# 45486
# 58689
# 70602
# 83135
# 94192
# 110962
# 122728
#
# Disc length: 1793 seconds
#
# Revision: 0
# Processed by: cddbd v1.5.2PL0 Copyright (c) Steve Scherf et al.
# Submitted via: RipIT 3.9.0 www.suwald.com/ripit/ripit.html on 2015-02-25 at 17:11
#
DISCID=7f06ff0a
DTITLE=Christoph Kalkuhl - Wirbeltiere
DYEAR=1900
DGENRE=Instrumentals
TTITLE0=Morgengrauen
TTITLE1=Sonnenvogel
TTITLE2=Auf der Lichtung
TTITLE3=Flamingo
TTITLE4=Tukan
TTITLE5=Nach dem Regen
TTITLE6=Irish Sheep (Hammelsprung)
TTITLE7=Mungo
TTITLE8=Mamba
TTITLE9=Trout Blues (Forelle Blau)
EXTD=
EXTT0=
EXTT1=
EXTT2=
EXTT3=
EXTT4=
EXTT5=
EXTT6=
EXTT7=
EXTT8=
EXTT9=
PLAYORDER=
